HIERARCHY
ROOT Hips
{
	OFFSET 0.00000 0.00000 0.00000
	CHANNELS 6 Xposition Yposition Zposition Zrotation Yrotation Xrotation 
	JOINT LHipJoint
	{
		OFFSET 0 0 0
		CHANNELS 3 Zrotation Yrotation Xrotation
		JOINT LeftHip
		{
			OFFSET 1.62964 -1.40469 0.78906
			CHANNELS 3 Zrotation Yrotation Xrotation
			JOINT LeftKnee
			{
				OFFSET 2.29640 -6.30932 0.00000
				CHANNELS 3 Zrotation Yrotation Xrotation
				JOINT LeftAnkle
				{
					OFFSET 2.29451 -6.30412 0.00000
					CHANNELS 3 Zrotation Yrotation Xrotation
					JOINT LeftToe
					{
						OFFSET 0.03611 -0.09921 1.56387
						CHANNELS 3 Zrotation Yrotation Xrotation
						End Site
						{
							OFFSET 0.00000 -0.00000 0.80291
						}
					}
				}
			}
		}
	}
	JOINT RHipJoint
	{
		OFFSET 0 0 0
		CHANNELS 3 Zrotation Yrotation Xrotation
		JOINT RightHip
		{
			OFFSET -1.73712 -1.40469 0.78906
			CHANNELS 3 Zrotation Yrotation Xrotation
			JOINT RightKnee
			{
				OFFSET -2.28137 -6.26801 0.00000
				CHANNELS 3 Zrotation Yrotation Xrotation
				JOINT RightAnkle
				{
					OFFSET -2.28681 -6.28298 0.00000
					CHANNELS 3 Zrotation Yrotation Xrotation
					JOINT RightToe
					{
						OFFSET -0.15927 -0.43759 1.61103
						CHANNELS 3 Zrotation Yrotation Xrotation
						End Site
						{
							OFFSET -0.00000 -0.00000 0.84630
						}
					}
				}
			}
		}
	}
	JOINT lowerback
	{
		OFFSET 0 0 0
		CHANNELS 3 Zrotation Yrotation Xrotation
		JOINT Chest
		{
			OFFSET -0.04227 2.04338 -0.00225
			CHANNELS 3 Zrotation Yrotation Xrotation
			JOINT Chest2
			{
				OFFSET -0.02148 2.04482 -0.04273
				CHANNELS 3 Zrotation Yrotation Xrotation
				JOINT lowerneck
				{
					OFFSET 0 0 0
					CHANNELS 3 Zrotation Yrotation Xrotation
					JOINT Neck
					{
						OFFSET 0.09180 1.44629 0.19359
						CHANNELS 3 Zrotation Yrotation Xrotation
						JOINT Head
						{
							OFFSET 0.00887 1.40645 0.14750
							CHANNELS 3 Zrotation Yrotation Xrotation
							End Site
							{
								OFFSET -0.00669 1.50671 0.03707
							}
						}
					}
				}
				JOINT LeftCollar
				{
					OFFSET 0 0 0
					CHANNELS 3 Zrotation Yrotation Xrotation
					JOINT LeftShoulder
					{
						OFFSET 2.17674 1.86763 -0.06520
CHANNELS 3 Zrotation Xrotation Yrotation
						JOINT LeftElbow
						{
OFFSET 0 -4.657760 0.000000
CHANNELS 3 Zrotation Xrotation Yrotation
							JOINT LeftWrist
							{
OFFSET 0 -3.555390 0.000000
CHANNELS 3 Zrotation Xrotation Yrotation
								JOINT lhand
								{
									OFFSET 0 0 0
CHANNELS 3 Zrotation Xrotation Yrotation
									JOINT LFingers
									{
OFFSET 0 -0.707260 0.000000
CHANNELS 3 Zrotation Xrotation Yrotation
										End Site
										{
OFFSET 0 -0.570220 0.000000
										}
									}
								}
								JOINT LThumb
								{
OFFSET 0 0.000000 0.000000
CHANNELS 3 Zrotation Xrotation Yrotation
									End Site
									{
OFFSET 0 -0.578920 0.578920
									}
								}
							}
						}
					}
				}
				JOINT RightCollar
				{
					OFFSET 0 0 0
					CHANNELS 3 Zrotation Yrotation Xrotation
					JOINT RightShoulder
					{
						OFFSET -2.80694 1.55459 -0.32496
CHANNELS 3 Zrotation Xrotation Yrotation
						JOINT RightElbow
						{
OFFSET 0 -4.719250 -0.000000
CHANNELS 3 Zrotation Xrotation Yrotation
							JOINT RightWrist
							{
OFFSET 0 -3.569900 0.000000
CHANNELS 3 Zrotation Xrotation Yrotation
								JOINT rhand
								{
									OFFSET 0 0 0
CHANNELS 3 Zrotation Xrotation Yrotation
									JOINT RFingers
									{
OFFSET 0 -0.507760 0.000000
CHANNELS 3 Zrotation Xrotation Yrotation
										End Site
										{
OFFSET 0 -0.409370 0.000000
										}
									}
								}
								JOINT RThumb
								{
OFFSET 0 0.000000 0.000000
CHANNELS 3 Zrotation Xrotation Yrotation
									End Site
									{
OFFSET 0 -0.415620 0.415620
									}
								}
							}
						}
					}
				}
			}
		}
	}
}
MOTION
Frames: 6
Frame Time: .0083333
-1.1823 19.6445 20.3748 178.2060 -2.0351 -152.3350 0.0000 0.0000 0.0000 -20.8853 -15.1864 -20.5839 0.1595 2.5732 7.0927 0.1247 -4.0430 -6.4699 0.7040 -5.3628 -14.9464 0.0000 0.0000 0.0000 18.7839 14.8820 -21.7758 -0.1522 -2.5143 6.9292 -1.0127 2.4977 -18.3462 -1.7349 8.2905 -23.6001 -7.5791 -2.8672 -29.2853 -0.1607 -2.0003 -1.8107 3.0902 -1.6597 13.5972 -1.8174 -3.7743 -4.2932 5.5904 -5.2241 11.5148 1.7538 -2.2019 4.3432 -0.0000 0.0000 0.0000 5.2548 2.7946 -17.1846 13.6771 -22.2712 2.7045 22.5754 -3.0169 10.3596 0.0 0.0 0.0 -7.1250 0.0 0.0 -3.1564 18.791 -1.9744 -0.0000 0.0000 0.0000 1.8461 8.4668 7.5101 -19.2446 -29.7215 -5.1516 -4.3 -0.8197 58.4428 0.0 0.0 0.0 7.1250 0.0 -0.0 88.5360 73.6616 -71.4341
-1.1807 19.6489 20.3754 178.1690 -2.0919 -152.4080 0.0000 0.0000 0.0000 -20.9364 -15.1387 -20.5271 0.1604 2.5807 7.1135 0.1247 -4.1543 -6.4931 0.7250 -5.4405 -15.1694 0.0000 0.0000 0.0000 18.7843 14.7500 -21.7660 -0.1552 -2.5383 6.9960 -1.0165 2.5456 -18.3719 -1.7305 8.2806 -23.5697 -7.6132 -2.8970 -29.1651 -0.1512 -2.0311 -1.7928 3.1113 -1.6722 13.5685 -1.8117 -3.7616 -4.3531 5.5252 -5.2052 11.4571 1.7329 -2.1994 4.3331 0.0000 -0.0000 0.0000 5.2119 2.7686 -17.1287 13.7006 -22.3051 2.7134 22.6247 -3.0182 10.4146 0.0 0.0 0.0 -7.1250 0.0 0.0 -3.1233 18.7277 -1.9581 0.0000 -0.0000 0.0000 1.8404 8.4828 7.4842 -19.2754 -29.7595 -5.1669 -4.4612 -0.5952 58.2755 0.0 0.0 0.0 7.1250 0.0 -0.0 87.9493 73.7181 -70.8935
-1.1808 19.6457 20.3752 178.1870 -2.0311 -152.2770 0.0000 0.0000 0.0000 -20.9022 -15.0919 -20.7006 0.1610 2.5854 7.1266 0.1206 -4.2061 -6.4135 0.6853 -5.2925 -14.7449 0.0000 0.0000 0.0000 18.8195 14.5141 -22.1191 -0.1625 -2.5971 7.1589 -1.0157 2.9002 -18.2968 -1.7864 8.4063 -23.9551 -7.5621 -2.8949 -29.3087 -0.1326 -2.0473 -1.8255 3.0924 -1.6812 13.5969 -1.8365 -3.7275 -4.3519 5.4226 -5.1497 11.4062 1.7086 -2.1828 4.3132 -0.0000 -0.0000 0.0000 5.1263 2.7876 -16.9594 13.7176 -22.3296 2.7199 22.4268 -2.9852 10.5787 0.0 0.0 0.0 -7.1250 0.0 0.0 -3.2689 18.5682 -2.0612 -0.0000 -0.0000 0.0000 1.752 8.4554 7.5768 -19.2225 -29.6942 -5.1406 -4.6044 -0.44 58.3624 0.0 0.0 0.0 7.1250 0.0 -0.0 88.2390 73.7659 -71.2467
-1.1831 19.6472 20.3701 178.2130 -2.0183 -152.4420 0.0000 0.0000 0.0000 -20.9250 -15.0897 -20.4175 0.1564 2.5480 7.0228 0.1198 -4.0974 -6.3694 0.6411 -5.1226 -14.2585 0.0000 0.0000 0.0000 18.9122 14.2223 -21.9917 -0.1615 -2.5890 7.1364 -1.0127 3.1435 -18.2264 -1.7980 8.4319 -24.0339 -7.4923 -2.8456 -29.2047 -0.1619 -2.0025 -1.8051 3.0447 -1.6530 13.5666 -1.7839 -3.7269 -4.2695 5.3749 -5.1449 11.4055 1.6873 -2.1808 4.2964 0.0000 0.0000 0.0000 5.1522 2.8542 -17.0465 13.7448 -22.3687 2.7302 21.9619 -2.9649 10.5564 0.0 0.0 0.0 -7.1250 0.0 0.0 -3.5968 18.6309 -2.2637 0.0000 0.0000 0.0000 1.7705 8.503 7.5407 -19.1635 -29.6214 -5.1114 -5.0248 -0.1637 58.0651 0.0 0.0 0.0 7.1250 0.0 -0.0 87.1766 73.9109 -70.3204
-1.1819 19.6429 20.3705 178.1980 -2.0163 -152.3040 0.0000 0.0000 0.0000 -20.9300 -15.0791 -20.5894 0.1579 2.5603 7.0569 0.1168 -4.1584 -6.3154 0.6553 -5.1776 -14.4159 0.0000 0.0000 0.0000 18.9127 14.0702 -22.2520 -0.1657 -2.6228 7.2303 -1.0163 3.4367 -18.2124 -1.7456 8.3147 -23.6740 -7.5110 -2.8670 -29.3386 -0.1552 -2.0261 -1.8375 3.0476 -1.6692 13.5922 -1.8107 -3.6996 -4.1869 5.4478 -5.1119 11.2213 1.7178 -2.1693 4.2278 0.0000 0.0000 0.0000 5.159 2.8664 -17.0762 13.7501 -22.3763 2.7322 21.7698 -3.0676 10.62 0.0 0.0 0.0 -7.1250 0.0 0.0 -3.7345 18.5787 -2.3551 0.0000 0.0000 0.0000 1.7949 8.5399 7.4724 -19.2003 -29.6668 -5.1296 -4.753 -0.2076 58.4922 0.0 0.0 0.0 7.1250 0.0 -0.0 88.6789 73.8138 -71.7555
-1.1824 19.6451 20.3684 178.1280 -2.0593 -152.3480 0.0000 0.0000 0.0000 -21.0280 -15.1419 -20.4917 0.1579 2.5600 7.0561 0.1164 -4.1470 -6.3033 0.6941 -5.3257 -14.8398 0.0000 0.0000 0.0000 18.8908 13.7319 -22.2861 -0.1649 -2.6158 7.2110 -1.0156 3.7413 -18.1619 -1.7123 8.2393 -23.4432 -7.5545 -2.8963 -29.2634 -0.1741 -2.0503 -1.8292 3.0437 -1.6804 13.5704 -1.7873 -3.6803 -4.2139 5.3057 -5.0604 10.7413 1.8629 -2.1756 4.5338 -0.0000 0.0000 0.0000 5.1712 2.8329 -17.0705 13.7115 -22.3208 2.7176 21.7897 -3.1914 10.7991 0.0 0.0 0.0 -7.1250 0.0 0.0 -3.7259 18.3857 -2.3655 -0.0000 0.0000 0.0000 1.8226 8.5107 7.3787 -19.1674 -29.6262 -5.1134 -4.525 -0.2845 58.491 0.0 0.0 0.0 7.1250 0.0 -0.0 88.6873 73.7368 -71.6763
